<mxfile host="app.diagrams.net" modified="2023-04-04T03:51:33.101Z" agent="Mozilla/5.0 (Macintosh; Intel Mac OS X 10_15_7) AppleWebKit/537.36 (KHTML, like Gecko) Chrome/111.0.0.0 Safari/537.36" etag="Pl80gNIjpc-8kfLCmWon" version="21.1.4" type="github">
  <diagram name="第 1 页" id="f94dO5qMRCgPtauUJSVI">
    <mxGraphModel dx="954" dy="616" grid="1" gridSize="10" guides="1" tooltips="1" connect="1" arrows="1" fold="1" page="1" pageScale="1" pageWidth="827" pageHeight="1169" math="0" shadow="0">
      <root>
        <mxCell id="0" />
        <mxCell id="1" parent="0" />
        <mxCell id="PQ0uDRjKzBcIBtXjpBZq-3" value="&lt;font style=&quot;font-size: 36px;&quot;&gt;P1&lt;/font&gt;" style="ellipse;whiteSpace=wrap;html=1;fillColor=#f8cecc;strokeColor=#b85450;" vertex="1" parent="1">
          <mxGeometry x="100" y="220" width="120" height="80" as="geometry" />
        </mxCell>
        <mxCell id="PQ0uDRjKzBcIBtXjpBZq-33" style="edgeStyle=orthogonalEdgeStyle;rounded=0;orthogonalLoop=1;jettySize=auto;html=1;exitX=0;exitY=0.5;exitDx=0;exitDy=0;" edge="1" parent="1" source="PQ0uDRjKzBcIBtXjpBZq-4" target="PQ0uDRjKzBcIBtXjpBZq-3">
          <mxGeometry relative="1" as="geometry" />
        </mxCell>
        <mxCell id="PQ0uDRjKzBcIBtXjpBZq-34" value="&lt;div style=&quot;font-family: Menlo, Monaco, &amp;quot;Courier New&amp;quot;, monospace; font-size: 15px; line-height: 23px;&quot;&gt;&lt;span style=&quot;background-color: rgb(255, 255, 255);&quot;&gt;/federate&lt;/span&gt;&lt;/div&gt;" style="edgeLabel;html=1;align=center;verticalAlign=middle;resizable=0;points=[];" vertex="1" connectable="0" parent="PQ0uDRjKzBcIBtXjpBZq-33">
          <mxGeometry x="0.2182" y="-3" relative="1" as="geometry">
            <mxPoint as="offset" />
          </mxGeometry>
        </mxCell>
        <mxCell id="PQ0uDRjKzBcIBtXjpBZq-35" style="edgeStyle=orthogonalEdgeStyle;rounded=0;orthogonalLoop=1;jettySize=auto;html=1;exitX=1;exitY=0.5;exitDx=0;exitDy=0;" edge="1" parent="1" source="PQ0uDRjKzBcIBtXjpBZq-4">
          <mxGeometry relative="1" as="geometry">
            <mxPoint x="630" y="260" as="targetPoint" />
          </mxGeometry>
        </mxCell>
        <mxCell id="PQ0uDRjKzBcIBtXjpBZq-37" value="&lt;font style=&quot;font-size: 18px;&quot;&gt;/federate&lt;/font&gt;" style="edgeLabel;html=1;align=center;verticalAlign=middle;resizable=0;points=[];" vertex="1" connectable="0" parent="PQ0uDRjKzBcIBtXjpBZq-35">
          <mxGeometry x="-0.14" relative="1" as="geometry">
            <mxPoint as="offset" />
          </mxGeometry>
        </mxCell>
        <mxCell id="PQ0uDRjKzBcIBtXjpBZq-4" value="&lt;font style=&quot;font-size: 36px;&quot;&gt;P2&lt;/font&gt;" style="ellipse;whiteSpace=wrap;html=1;fillColor=#f8cecc;strokeColor=#b85450;" vertex="1" parent="1">
          <mxGeometry x="345" y="220" width="120" height="80" as="geometry" />
        </mxCell>
        <mxCell id="PQ0uDRjKzBcIBtXjpBZq-31" style="edgeStyle=orthogonalEdgeStyle;rounded=0;orthogonalLoop=1;jettySize=auto;html=1;entryX=0;entryY=1;entryDx=0;entryDy=0;" edge="1" parent="1" source="PQ0uDRjKzBcIBtXjpBZq-5" target="PQ0uDRjKzBcIBtXjpBZq-4">
          <mxGeometry relative="1" as="geometry">
            <Array as="points">
              <mxPoint x="240" y="330" />
              <mxPoint x="363" y="330" />
            </Array>
          </mxGeometry>
        </mxCell>
        <mxCell id="PQ0uDRjKzBcIBtXjpBZq-32" value="&lt;font style=&quot;font-size: 18px;&quot;&gt;pull&lt;/font&gt;" style="edgeLabel;html=1;align=center;verticalAlign=middle;resizable=0;points=[];" vertex="1" connectable="0" parent="PQ0uDRjKzBcIBtXjpBZq-31">
          <mxGeometry x="-0.2648" y="4" relative="1" as="geometry">
            <mxPoint as="offset" />
          </mxGeometry>
        </mxCell>
        <mxCell id="PQ0uDRjKzBcIBtXjpBZq-5" value="Node Metrics" style="rounded=0;whiteSpace=wrap;html=1;fillColor=#d5e8d4;strokeColor=#82b366;" vertex="1" parent="1">
          <mxGeometry x="110" y="390" width="130" height="60" as="geometry" />
        </mxCell>
        <mxCell id="PQ0uDRjKzBcIBtXjpBZq-9" value="" style="edgeStyle=orthogonalEdgeStyle;rounded=0;orthogonalLoop=1;jettySize=auto;html=1;" edge="1" parent="1" source="PQ0uDRjKzBcIBtXjpBZq-6" target="PQ0uDRjKzBcIBtXjpBZq-4">
          <mxGeometry relative="1" as="geometry" />
        </mxCell>
        <mxCell id="PQ0uDRjKzBcIBtXjpBZq-11" value="&lt;font style=&quot;font-size: 18px;&quot;&gt;pull&lt;/font&gt;" style="edgeLabel;html=1;align=center;verticalAlign=middle;resizable=0;points=[];" vertex="1" connectable="0" parent="PQ0uDRjKzBcIBtXjpBZq-9">
          <mxGeometry x="-0.1556" y="2" relative="1" as="geometry">
            <mxPoint as="offset" />
          </mxGeometry>
        </mxCell>
        <mxCell id="PQ0uDRjKzBcIBtXjpBZq-6" value="Node Metrics" style="rounded=0;whiteSpace=wrap;html=1;fillColor=#d5e8d4;strokeColor=#82b366;" vertex="1" parent="1">
          <mxGeometry x="345" y="390" width="120" height="60" as="geometry" />
        </mxCell>
        <mxCell id="PQ0uDRjKzBcIBtXjpBZq-36" value="&lt;font style=&quot;font-size: 36px;&quot;&gt;P3&lt;/font&gt;" style="ellipse;whiteSpace=wrap;html=1;fillColor=#f8cecc;strokeColor=#b85450;" vertex="1" parent="1">
          <mxGeometry x="630" y="220" width="120" height="80" as="geometry" />
        </mxCell>
        <mxCell id="PQ0uDRjKzBcIBtXjpBZq-39" style="edgeStyle=orthogonalEdgeStyle;rounded=0;orthogonalLoop=1;jettySize=auto;html=1;" edge="1" parent="1" source="PQ0uDRjKzBcIBtXjpBZq-38" target="PQ0uDRjKzBcIBtXjpBZq-3">
          <mxGeometry relative="1" as="geometry" />
        </mxCell>
        <mxCell id="PQ0uDRjKzBcIBtXjpBZq-43" value="&lt;font style=&quot;font-size: 18px;&quot;&gt;query&lt;/font&gt;" style="edgeLabel;html=1;align=center;verticalAlign=middle;resizable=0;points=[];" vertex="1" connectable="0" parent="PQ0uDRjKzBcIBtXjpBZq-39">
          <mxGeometry x="0.4381" y="3" relative="1" as="geometry">
            <mxPoint x="-3" y="28" as="offset" />
          </mxGeometry>
        </mxCell>
        <mxCell id="PQ0uDRjKzBcIBtXjpBZq-40" style="edgeStyle=orthogonalEdgeStyle;rounded=0;orthogonalLoop=1;jettySize=auto;html=1;entryX=0.5;entryY=0;entryDx=0;entryDy=0;" edge="1" parent="1" source="PQ0uDRjKzBcIBtXjpBZq-38" target="PQ0uDRjKzBcIBtXjpBZq-4">
          <mxGeometry relative="1" as="geometry" />
        </mxCell>
        <mxCell id="PQ0uDRjKzBcIBtXjpBZq-44" value="&lt;font style=&quot;font-size: 18px;&quot;&gt;query&lt;/font&gt;" style="edgeLabel;html=1;align=center;verticalAlign=middle;resizable=0;points=[];" vertex="1" connectable="0" parent="PQ0uDRjKzBcIBtXjpBZq-40">
          <mxGeometry x="0.0182" y="-1" relative="1" as="geometry">
            <mxPoint x="1" y="-6" as="offset" />
          </mxGeometry>
        </mxCell>
        <mxCell id="PQ0uDRjKzBcIBtXjpBZq-41" style="edgeStyle=orthogonalEdgeStyle;rounded=0;orthogonalLoop=1;jettySize=auto;html=1;exitX=1;exitY=0.5;exitDx=0;exitDy=0;entryX=0.5;entryY=0;entryDx=0;entryDy=0;" edge="1" parent="1" source="PQ0uDRjKzBcIBtXjpBZq-38" target="PQ0uDRjKzBcIBtXjpBZq-36">
          <mxGeometry relative="1" as="geometry" />
        </mxCell>
        <mxCell id="PQ0uDRjKzBcIBtXjpBZq-45" value="&lt;font style=&quot;font-size: 18px;&quot;&gt;query&lt;/font&gt;" style="edgeLabel;html=1;align=center;verticalAlign=middle;resizable=0;points=[];" vertex="1" connectable="0" parent="PQ0uDRjKzBcIBtXjpBZq-41">
          <mxGeometry x="0.6169" y="-2" relative="1" as="geometry">
            <mxPoint x="2" as="offset" />
          </mxGeometry>
        </mxCell>
        <mxCell id="PQ0uDRjKzBcIBtXjpBZq-38" value="&lt;font style=&quot;font-size: 36px;&quot;&gt;Nginx&lt;/font&gt;" style="rounded=1;whiteSpace=wrap;html=1;fillColor=#dae8fc;strokeColor=#6c8ebf;" vertex="1" parent="1">
          <mxGeometry x="340" y="60" width="130" height="50" as="geometry" />
        </mxCell>
        <mxCell id="PQ0uDRjKzBcIBtXjpBZq-49" value="&lt;font style=&quot;font-size: 18px;&quot;&gt;pull&lt;/font&gt;" style="edgeStyle=orthogonalEdgeStyle;rounded=0;orthogonalLoop=1;jettySize=auto;html=1;entryX=1;entryY=1;entryDx=0;entryDy=0;" edge="1" parent="1" source="PQ0uDRjKzBcIBtXjpBZq-46" target="PQ0uDRjKzBcIBtXjpBZq-4">
          <mxGeometry relative="1" as="geometry">
            <mxPoint x="480" y="280" as="targetPoint" />
            <Array as="points">
              <mxPoint x="650" y="330" />
              <mxPoint x="447" y="330" />
            </Array>
          </mxGeometry>
        </mxCell>
        <mxCell id="PQ0uDRjKzBcIBtXjpBZq-46" value="Node Metrics" style="rounded=1;whiteSpace=wrap;html=1;fillColor=#d5e8d4;strokeColor=#82b366;" vertex="1" parent="1">
          <mxGeometry x="590" y="380" width="120" height="70" as="geometry" />
        </mxCell>
      </root>
    </mxGraphModel>
  </diagram>
</mxfile>
